<?xml version="1.0" encoding="UTF-8"?> <svg xmlns="http://www.w3.org/2000/svg" viewBox="0 0 26 26" fill="none"> <g clip-path="url(#clip0)"> <path d="M18.411 19.2862C17.4513 18.7445 16.5937 18.0625 15.8673 17.2634C15.5139 16.8672 14.8988 16.7005 14.4769 16.8241L11.9634 17.1598C10.5352 14.9149 9.9865 12.9456 10.0553 10.3094L12.3156 9.3217C12.8403 9.17601 13.2369 8.75449 13.3519 8.21386C13.5622 7.14892 13.9432 6.12208 14.4852 5.16195C14.8767 4.46838 14.6309 3.58561 13.9373 3.19415L11.0586 1.56933C10.3651 1.17787 9.48229 1.42365 9.09083 2.11721C4.60366 10.0672 7.42085 20.1853 15.3708 24.6725C16.0644 25.064 16.9472 24.8182 17.3386 24.1246L18.9589 21.2539C19.3503 20.5604 19.1045 19.6776 18.411 19.2862Z" fill="#F7BD32"></path> </g> <defs> <clipPath id="clip0"> <rect width="18" height="18" fill="white" transform="translate(9.80078 0.859375) rotate(29.4414)"></rect> </clipPath> </defs> </svg> 