<?xml version="1.0" encoding="UTF-8"?> <svg xmlns="http://www.w3.org/2000/svg" width="33" height="33" viewBox="0 0 33 33" fill="none"> <g clip-path="url(#clip0)"> <path d="M16.9375 0.458496C8.10094 0.458496 0.9375 7.62193 0.9375 16.4585C0.9375 25.2951 8.10094 32.4585 16.9375 32.4585C25.7741 32.4585 32.9375 25.2951 32.9375 16.4585C32.9375 7.62193 25.7741 0.458496 16.9375 0.458496ZM8.37075 22.8268L3.589 20.6979L4.35162 18.985L6.11644 19.7707C4.91569 15.8392 5.9365 11.4592 8.93731 8.45843C10.7067 6.689 12.9497 5.57806 15.4237 5.24581C17.8179 4.92437 20.2949 5.38643 22.3992 6.54706L21.4936 8.18893C19.7388 7.22093 17.6719 6.836 15.6734 7.10412C13.6102 7.38131 11.7394 8.30806 10.2631 9.78431C7.75463 12.2928 6.90438 15.9561 7.915 19.2406L8.78675 17.2826L10.4996 18.0451L8.37075 22.8268ZM27.7586 13.1464C28.9593 17.0779 27.9385 21.4579 24.9377 24.4587C23.1682 26.2281 20.9253 27.3391 18.4513 27.6713C17.9546 27.738 17.4542 27.7711 16.9545 27.7711C15.0454 27.7711 13.1436 27.2899 11.4758 26.3701L12.3814 24.7282C14.1362 25.6962 16.2033 26.0813 18.2016 25.813C20.2648 25.5358 22.1356 24.6091 23.6119 23.1328C26.1204 20.6243 26.9706 16.9611 25.96 13.6766L25.0882 15.6346L23.3754 14.872L25.5042 10.0902L30.286 12.2191L29.5234 13.932L27.7586 13.1464Z" fill="#634B12"></path> </g> <defs> <clipPath id="clip0"> <rect width="32" height="32" fill="white" transform="translate(0.9375 0.458496)"></rect> </clipPath> </defs> </svg> 