<?xml version="1.0" encoding="UTF-8"?> <svg xmlns="http://www.w3.org/2000/svg" width="33" height="33" viewBox="0 0 33 33" fill="none"> <g clip-path="url(#clip0)"> <path d="M20.9977 17.3024C21.437 17.2936 21.8434 17.0678 22.083 16.6995L27.5098 6.85083C27.7944 6.3533 27.6752 5.72269 27.2284 5.36349L21.8016 0.74067C21.5787 0.548785 21.2915 0.448289 20.9977 0.459281H11.752C11.4582 0.448289 11.171 0.548785 10.9481 0.74067L5.52127 5.36349C5.07453 5.72269 4.95527 6.3533 5.23988 6.85083L10.6667 16.6995C10.9063 17.0678 11.3127 17.2936 11.752 17.3024H15.1689V21.3625C15.1463 22.0059 15.6496 22.5458 16.293 22.5684C16.3203 22.5694 16.3476 22.5694 16.3749 22.5684C18.4396 22.5684 20.1133 24.2422 20.1133 26.3069C20.1133 28.3716 18.4396 30.0453 16.3749 30.0453C14.3101 30.0453 12.6364 28.3716 12.6364 26.3069H10.2245C10.2239 29.7036 12.9769 32.4578 16.3737 32.4584C19.7704 32.459 22.5246 29.706 22.5252 26.3092C22.5258 23.3769 20.4562 20.852 17.5808 20.277V17.3023H20.9977V17.3024Z" fill="#634B12"></path> <path d="M12.332 13.2085L20.4166 5.12397" stroke="#F7BD32" stroke-width="2"></path> <path d="M12.332 5.12396L20.4166 13.2085" stroke="#F7BD32" stroke-width="2"></path> </g> <defs> <clipPath id="clip0"> <rect width="32" height="32" fill="white" transform="translate(0.375 0.458496)"></rect> </clipPath> </defs> </svg> 