<?xml version="1.0" encoding="UTF-8"?> <svg xmlns="http://www.w3.org/2000/svg" width="33" height="33" viewBox="0 0 33 33" fill="none"> <g clip-path="url(#clip0)"> <path d="M24.797 20.0241C24.0824 19.8508 23.3624 20.2974 23.1931 21.0134C23.0224 21.7294 23.4664 22.448 24.1823 22.6173C28.3236 23.6 29.8249 25.0533 29.8249 25.792C29.8249 27.3853 24.5077 29.7919 16.4919 29.7919C8.47734 29.7919 3.15882 27.3853 3.15882 25.792C3.15882 25.0533 4.66148 23.6 8.80002 22.6173C9.51732 22.448 9.96 21.7294 9.78932 21.0134C9.62001 20.2974 8.90002 19.8507 8.18535 20.0241C3.22413 21.2001 0.492188 23.248 0.492188 25.792C0.492188 30.1679 8.54272 32.4585 16.4919 32.4585C24.4424 32.4585 32.4916 30.1679 32.4916 25.792C32.4916 23.248 29.7596 21.2001 24.797 20.0241Z" fill="#634B12"></path> <path d="M14.7571 25.3029L15.2997 26.3882C15.5264 26.8402 15.9877 27.1255 16.493 27.1255C16.9983 27.1255 17.4597 26.8402 17.6863 26.3882L18.8356 24.0895C20.2343 21.2909 21.9595 18.5803 23.6275 15.959L24.3875 14.763C25.3288 13.2751 25.8261 11.5564 25.8261 9.79244C25.8261 7.13649 24.6889 4.59786 22.7062 2.82726C20.7249 1.05799 18.0597 0.210065 15.4024 0.522059C11.2531 0.99405 7.82657 4.3353 7.25189 8.4659C6.9119 10.9139 7.52388 13.3445 8.97317 15.3125C11.2345 18.3763 12.9998 21.7856 14.7571 25.3029ZM16.493 5.79258C18.6983 5.79258 20.4929 7.58723 20.4929 9.7925C20.4929 11.9978 18.6983 13.7924 16.493 13.7924C14.2878 13.7924 12.4931 11.9978 12.4931 9.7925C12.4931 7.58723 14.2878 5.79258 16.493 5.79258Z" fill="#634B12"></path> </g> <defs> <clipPath id="clip0"> <rect width="32" height="32" fill="white" transform="translate(0.492188 0.458496)"></rect> </clipPath> </defs> </svg> 