<?xml version="1.0" encoding="UTF-8"?> <svg xmlns="http://www.w3.org/2000/svg" width="33" height="33" viewBox="0 0 33 33" fill="none"> <g clip-path="url(#clip0)"> <path d="M32.068 10.9678L17.068 0.634496C16.7267 0.399829 16.276 0.399829 15.9333 0.634496L0.933333 10.9678C0.661333 11.1545 0.5 11.4625 0.5 11.7918V31.1252C0.5 31.8612 1.09733 32.4585 1.83333 32.4585H4.5V16.4585C4.5 15.7225 5.09733 15.1252 5.83333 15.1252H27.1667C27.9027 15.1252 28.5 15.7225 28.5 16.4585V32.4585H31.1667C31.9027 32.4585 32.5 31.8612 32.5 31.1252V11.7918C32.5 11.4625 32.3387 11.1545 32.068 10.9678Z" fill="#634B12"></path> <path d="M12.832 25.7918V26.7918C12.832 27.3438 12.384 27.7918 11.832 27.7918C11.28 27.7918 10.832 27.3438 10.832 26.7918V25.7918H8.4987C8.1307 25.7918 7.83203 26.0905 7.83203 26.4585V31.7919C7.83203 32.1599 8.1307 32.4585 8.4987 32.4585H15.1654C15.5334 32.4585 15.832 32.1599 15.832 31.7919V26.4585C15.832 26.0905 15.5334 25.7918 15.1654 25.7918H12.832Z" fill="#634B12"></path> <path d="M22.168 25.7918V26.7918C22.168 27.3438 21.72 27.7918 21.168 27.7918C20.616 27.7918 20.168 27.3438 20.168 26.7918V25.7918H17.8346C17.4666 25.7918 17.168 26.0905 17.168 26.4585V31.7919C17.168 32.1599 17.4666 32.4585 17.8346 32.4585H24.5013C24.8693 32.4585 25.168 32.1599 25.168 31.7919V26.4585C25.168 26.0905 24.8693 25.7918 24.5013 25.7918H22.168Z" fill="#634B12"></path> <path d="M17.5 17.7918V18.7918C17.5 19.3438 17.052 19.7918 16.5 19.7918C15.948 19.7918 15.5 19.3438 15.5 18.7918V17.7918H13.1667C12.7987 17.7918 12.5 18.0905 12.5 18.4585V23.7919C12.5 24.1599 12.7987 24.4585 13.1667 24.4585H19.8333C20.2013 24.4585 20.5 24.1599 20.5 23.7919V18.4585C20.5 18.0905 20.2013 17.7918 19.8333 17.7918H17.5Z" fill="#634B12"></path> </g> <defs> <clipPath id="clip0"> <rect width="32" height="32" fill="white" transform="translate(0.5 0.458496)"></rect> </clipPath> </defs> </svg> 